<svg xmlns="http://www.w3.org/2000/svg" fill="none" viewBox="8.780269058295964 34.048 158.84304932735427 94.696" style="max-height: 500px" width="158.84304932735427" height="94.696">
<rect fill="#1E1E1E" height="133" width="178"/>
<rect fill="black" height="133" width="178"/>
<path stroke-linecap="round" stroke-width="6" stroke="#5A5A5A" d="M119 113C126.5 109.5 134 107.5 145 109.678M145 109.678C149.899 109.433 154.509 109.403 158.056 109.489C158.339 109.495 158.622 109.373 158.815 109.165C168.218 98.989 155.318 98.4677 157 95.5C165.5 80.5 147.722 83.5 148 81C148.688 74.8043 142.762 72.3604 138.121 71.3743C137.289 71.1974 136.915 69.9861 136.97 69.1366C137.248 64.8605 127.194 58.6343 119 58.5C88.5 58 73.5 60.5 67.5 62C62.8018 63.1746 30.5756 61.5708 14.0512 60.5645C13.4757 60.5295 13 60.9872 13 61.5638V100.01C13 100.559 13.4656 101.005 14.0138 101.011C61.5073 101.507 62.0386 102.014 67.5 104C71.8733 105.59 96.0377 118.179 107.786 124.387C107.93 124.463 108.093 124.5 108.256 124.5C135.988 124.462 134.021 118.214 141 117C150.2 115.4 147.5 111.452 145 109.678Z"/>
<rect stroke-width="6" stroke="#FF9100" rx="5" height="27" width="24" y="65" x="39.5"/>
<path stroke-linecap="round" stroke-width="6" stroke="#FF9100" d="M45 62H58.5M40.5 90.718C42.8167 93.5692 45.5627 96.8609 45.953 101.001C46.0048 101.551 46.4477 102 47 102H57.5C58.0523 102 58.4988 101.55 58.5862 101.005C59.1192 97.6802 61.9919 92.8834 63.5 90.718"/>
<path stroke-linecap="round" stroke-width="7" stroke="#FF9100" d="M62.5 46.4309C71.5 33 79 39.5 85.5 49C92 58.5 96 98 85.5 113C78.1003 123.571 64.5 120.2 62.5 113"/>
<path fill="#FF9100" d="M55.6223 44.2795C55.2781 42.7789 56.6873 41.4683 58.159 41.9205L68.1085 44.9771C69.5802 45.4293 70.0106 47.305 68.8831 48.3535L61.2612 55.4416C60.1338 56.4901 58.2942 55.9249 57.9499 54.4243L55.6223 44.2795Z"/>
</svg>